<?xml version="1.0" encoding="UTF-8"?>
<svg width="200" height="200" viewBox="0 0 200 200" fill="none" xmlns="http://www.w3.org/2000/svg">
    <rect width="200" height="200" fill="#F3F4F6"/>
    <path d="M100 70C113.807 70 125 81.1929 125 95C125 108.807 113.807 120 100 120C86.1929 120 75 108.807 75 95C75 81.1929 86.1929 70 100 70Z" fill="#9CA3AF"/>
    <path d="M100 120C108.284 120 115 113.284 115 105V85C115 76.7157 108.284 70 100 70C91.7157 70 85 76.7157 85 85V105C85 113.284 91.7157 120 100 120Z" fill="#D1D5DB"/>
    <path d="M150 70H140V60C140 58.3431 138.657 57 137 57H63C61.3431 57 60 58.3431 60 60V70H50C47.2386 70 45 72.2386 45 75V165C45 167.761 47.2386 170 50 170H150C152.761 170 155 167.761 155 165V75C155 72.2386 152.761 70 150 70ZM65 67H135V62H65V67ZM145 162H55V77H65V85C65 93.2843 71.7157 100 80 100H120C128.284 100 135 93.2843 135 85V77H145V162Z" fill="#9CA3AF"/>
</svg>
